<mxfile host="app.diagrams.net" modified="2023-04-14T12:03:22.367Z" agent="Mozilla/5.0 (Windows NT 10.0; Win64; x64) AppleWebKit/537.36 (KHTML, like Gecko) Chrome/112.0.0.0 Safari/537.36" etag="Cuchs8QY9rxNZ9Q93mY1" version="21.1.7" type="github">
  <diagram id="R2lEEEUBdFMjLlhIrx00" name="Page-1">
    <mxGraphModel dx="2950" dy="2130" grid="1" gridSize="10" guides="1" tooltips="1" connect="1" arrows="1" fold="1" page="1" pageScale="1" pageWidth="850" pageHeight="1100" math="0" shadow="0" extFonts="Permanent Marker^https://fonts.googleapis.com/css?family=Permanent+Marker">
      <root>
        <mxCell id="0" />
        <mxCell id="1" parent="0" />
        <mxCell id="VfnCZ4Grp9ZNNskB4M9N-1" value="&lt;b&gt;&lt;font style=&quot;font-size: 16px;&quot;&gt;Passenger&lt;/font&gt;&lt;/b&gt;" style="rounded=1;whiteSpace=wrap;html=1;fillColor=#f8cecc;strokeColor=#b85450;" vertex="1" parent="1">
          <mxGeometry x="350" y="340" width="120" height="60" as="geometry" />
        </mxCell>
        <mxCell id="VfnCZ4Grp9ZNNskB4M9N-2" value="&lt;b&gt;&lt;font style=&quot;font-size: 16px;&quot;&gt;Airline&lt;/font&gt;&lt;/b&gt;" style="rounded=1;whiteSpace=wrap;html=1;fillColor=#f8cecc;strokeColor=#b85450;" vertex="1" parent="1">
          <mxGeometry x="830" y="70" width="120" height="60" as="geometry" />
        </mxCell>
        <mxCell id="VfnCZ4Grp9ZNNskB4M9N-3" value="&lt;font style=&quot;font-size: 16px;&quot;&gt;&lt;b&gt;Flight&lt;/b&gt;&lt;/font&gt;" style="rounded=1;whiteSpace=wrap;html=1;fillColor=#f8cecc;strokeColor=#b85450;" vertex="1" parent="1">
          <mxGeometry x="380" y="-20" width="120" height="60" as="geometry" />
        </mxCell>
        <mxCell id="VfnCZ4Grp9ZNNskB4M9N-4" value="&lt;font style=&quot;font-size: 16px;&quot;&gt;&lt;b&gt;Crew&lt;/b&gt;&lt;/font&gt;" style="rounded=1;whiteSpace=wrap;html=1;fillColor=#f8cecc;strokeColor=#b85450;" vertex="1" parent="1">
          <mxGeometry x="-60" y="70" width="120" height="60" as="geometry" />
        </mxCell>
        <mxCell id="VfnCZ4Grp9ZNNskB4M9N-5" value="&lt;b&gt;&lt;font style=&quot;font-size: 16px;&quot;&gt;TIckets&lt;/font&gt;&lt;/b&gt;" style="rounded=1;whiteSpace=wrap;html=1;fillColor=#f8cecc;strokeColor=#b85450;" vertex="1" parent="1">
          <mxGeometry x="130" y="690" width="120" height="60" as="geometry" />
        </mxCell>
        <mxCell id="VfnCZ4Grp9ZNNskB4M9N-6" value="&lt;b&gt;&lt;font style=&quot;font-size: 16px;&quot;&gt;Payment&lt;/font&gt;&lt;/b&gt;" style="rounded=1;whiteSpace=wrap;html=1;fillColor=#f8cecc;strokeColor=#b85450;" vertex="1" parent="1">
          <mxGeometry x="580" y="650" width="120" height="60" as="geometry" />
        </mxCell>
        <mxCell id="VfnCZ4Grp9ZNNskB4M9N-8" value="&lt;font style=&quot;font-size: 14px;&quot;&gt;&lt;u&gt;PSID&lt;/u&gt;&lt;/font&gt;" style="ellipse;whiteSpace=wrap;html=1;" vertex="1" parent="1">
          <mxGeometry x="275" y="240" width="90" height="60" as="geometry" />
        </mxCell>
        <mxCell id="VfnCZ4Grp9ZNNskB4M9N-10" value="&lt;font style=&quot;font-size: 14px;&quot;&gt;Nationality&lt;/font&gt;" style="ellipse;whiteSpace=wrap;html=1;" vertex="1" parent="1">
          <mxGeometry x="550" y="410" width="90" height="60" as="geometry" />
        </mxCell>
        <mxCell id="VfnCZ4Grp9ZNNskB4M9N-13" value="&lt;font style=&quot;font-size: 14px;&quot;&gt;Net Fare&lt;/font&gt;" style="ellipse;whiteSpace=wrap;html=1;" vertex="1" parent="1">
          <mxGeometry x="270" y="-100" width="90" height="60" as="geometry" />
        </mxCell>
        <mxCell id="VfnCZ4Grp9ZNNskB4M9N-14" value="&lt;font style=&quot;font-size: 14px;&quot;&gt;Flight Datetime&lt;/font&gt;" style="ellipse;whiteSpace=wrap;html=1;" vertex="1" parent="1">
          <mxGeometry x="570" y="-20" width="110" height="60" as="geometry" />
        </mxCell>
        <mxCell id="VfnCZ4Grp9ZNNskB4M9N-15" value="&lt;font style=&quot;font-size: 14px;&quot;&gt;&lt;u style=&quot;border-color: var(--border-color);&quot;&gt;&lt;b style=&quot;border-color: var(--border-color);&quot;&gt;FK:&amp;nbsp;&lt;/b&gt;&lt;/u&gt;Airline_NO.&lt;/font&gt;" style="ellipse;whiteSpace=wrap;html=1;" vertex="1" parent="1">
          <mxGeometry x="520" y="-100" width="120" height="60" as="geometry" />
        </mxCell>
        <mxCell id="VfnCZ4Grp9ZNNskB4M9N-16" value="&lt;u&gt;&lt;font style=&quot;font-size: 14px;&quot;&gt;FHID&lt;/font&gt;&lt;/u&gt;" style="ellipse;whiteSpace=wrap;html=1;" vertex="1" parent="1">
          <mxGeometry x="390" y="-120" width="90" height="60" as="geometry" />
        </mxCell>
        <mxCell id="VfnCZ4Grp9ZNNskB4M9N-17" value="&lt;font style=&quot;font-size: 14px;&quot;&gt;&lt;u&gt;&lt;b&gt;FK:&lt;/b&gt;&lt;/u&gt; FHID&lt;/font&gt;" style="ellipse;whiteSpace=wrap;html=1;" vertex="1" parent="1">
          <mxGeometry x="-140" y="-30" width="90" height="60" as="geometry" />
        </mxCell>
        <mxCell id="VfnCZ4Grp9ZNNskB4M9N-22" value="&lt;font style=&quot;font-size: 14px;&quot;&gt;&lt;u style=&quot;border-color: var(--border-color);&quot;&gt;&lt;b style=&quot;border-color: var(--border-color);&quot;&gt;FK:&amp;nbsp;&lt;/b&gt;&lt;/u&gt;TIcket_NO.&lt;/font&gt;" style="ellipse;whiteSpace=wrap;html=1;" vertex="1" parent="1">
          <mxGeometry x="680" y="510" width="130" height="60" as="geometry" />
        </mxCell>
        <mxCell id="VfnCZ4Grp9ZNNskB4M9N-23" value="&lt;font style=&quot;font-size: 14px;&quot;&gt;Airline_Name&lt;/font&gt;" style="ellipse;whiteSpace=wrap;html=1;" vertex="1" parent="1">
          <mxGeometry x="795" y="200" width="100" height="60" as="geometry" />
        </mxCell>
        <mxCell id="VfnCZ4Grp9ZNNskB4M9N-24" value="&lt;font style=&quot;font-size: 14px;&quot;&gt;Country&lt;/font&gt;" style="ellipse;whiteSpace=wrap;html=1;" vertex="1" parent="1">
          <mxGeometry x="1000" y="70" width="90" height="60" as="geometry" />
        </mxCell>
        <mxCell id="VfnCZ4Grp9ZNNskB4M9N-25" value="&lt;font style=&quot;font-size: 14px;&quot;&gt;&lt;u&gt;Airline_NO.&lt;/u&gt;&lt;/font&gt;" style="ellipse;whiteSpace=wrap;html=1;" vertex="1" parent="1">
          <mxGeometry x="795" y="-50" width="90" height="60" as="geometry" />
        </mxCell>
        <mxCell id="VfnCZ4Grp9ZNNskB4M9N-26" style="edgeStyle=orthogonalEdgeStyle;rounded=0;orthogonalLoop=1;jettySize=auto;html=1;exitX=0.5;exitY=1;exitDx=0;exitDy=0;" edge="1" parent="1" source="VfnCZ4Grp9ZNNskB4M9N-16" target="VfnCZ4Grp9ZNNskB4M9N-16">
          <mxGeometry relative="1" as="geometry" />
        </mxCell>
        <mxCell id="VfnCZ4Grp9ZNNskB4M9N-27" value="" style="endArrow=none;html=1;rounded=0;entryX=0.5;entryY=1;entryDx=0;entryDy=0;exitX=0.5;exitY=0;exitDx=0;exitDy=0;" edge="1" parent="1" source="VfnCZ4Grp9ZNNskB4M9N-3" target="VfnCZ4Grp9ZNNskB4M9N-16">
          <mxGeometry width="50" height="50" relative="1" as="geometry">
            <mxPoint x="435" y="20" as="sourcePoint" />
            <mxPoint x="435" y="-50" as="targetPoint" />
          </mxGeometry>
        </mxCell>
        <mxCell id="VfnCZ4Grp9ZNNskB4M9N-32" value="" style="endArrow=none;html=1;rounded=0;entryX=0.658;entryY=0.997;entryDx=0;entryDy=0;entryPerimeter=0;exitX=0.067;exitY=0.01;exitDx=0;exitDy=0;exitPerimeter=0;" edge="1" parent="1" source="VfnCZ4Grp9ZNNskB4M9N-3" target="VfnCZ4Grp9ZNNskB4M9N-13">
          <mxGeometry width="50" height="50" relative="1" as="geometry">
            <mxPoint x="370" y="20" as="sourcePoint" />
            <mxPoint x="300" y="20" as="targetPoint" />
          </mxGeometry>
        </mxCell>
        <mxCell id="VfnCZ4Grp9ZNNskB4M9N-33" value="" style="endArrow=none;html=1;rounded=0;exitX=0.993;exitY=0.117;exitDx=0;exitDy=0;exitPerimeter=0;" edge="1" parent="1" source="VfnCZ4Grp9ZNNskB4M9N-3" target="VfnCZ4Grp9ZNNskB4M9N-15">
          <mxGeometry width="50" height="50" relative="1" as="geometry">
            <mxPoint x="490" as="sourcePoint" />
            <mxPoint x="530" as="targetPoint" />
          </mxGeometry>
        </mxCell>
        <mxCell id="VfnCZ4Grp9ZNNskB4M9N-34" value="" style="endArrow=none;html=1;rounded=0;exitX=0.076;exitY=0.75;exitDx=0;exitDy=0;exitPerimeter=0;entryX=1;entryY=0.75;entryDx=0;entryDy=0;" edge="1" parent="1" source="VfnCZ4Grp9ZNNskB4M9N-14" target="VfnCZ4Grp9ZNNskB4M9N-3">
          <mxGeometry width="50" height="50" relative="1" as="geometry">
            <mxPoint x="430" y="130" as="sourcePoint" />
            <mxPoint x="480" y="60" as="targetPoint" />
          </mxGeometry>
        </mxCell>
        <mxCell id="VfnCZ4Grp9ZNNskB4M9N-35" value="&lt;font style=&quot;font-size: 14px;&quot;&gt;Seat Available&lt;/font&gt;" style="ellipse;whiteSpace=wrap;html=1;" vertex="1" parent="1">
          <mxGeometry x="460" y="100" width="115" height="60" as="geometry" />
        </mxCell>
        <mxCell id="VfnCZ4Grp9ZNNskB4M9N-36" value="&lt;font style=&quot;font-size: 14px;&quot;&gt;Destination&lt;/font&gt;" style="ellipse;whiteSpace=wrap;html=1;" vertex="1" parent="1">
          <mxGeometry x="320" y="100" width="90" height="60" as="geometry" />
        </mxCell>
        <mxCell id="VfnCZ4Grp9ZNNskB4M9N-37" value="&lt;font style=&quot;font-size: 14px;&quot;&gt;Source&lt;/font&gt;" style="ellipse;whiteSpace=wrap;html=1;" vertex="1" parent="1">
          <mxGeometry x="220" width="90" height="60" as="geometry" />
        </mxCell>
        <mxCell id="VfnCZ4Grp9ZNNskB4M9N-38" value="" style="endArrow=none;html=1;rounded=0;entryX=0;entryY=0.75;entryDx=0;entryDy=0;" edge="1" parent="1" source="VfnCZ4Grp9ZNNskB4M9N-37" target="VfnCZ4Grp9ZNNskB4M9N-3">
          <mxGeometry width="50" height="50" relative="1" as="geometry">
            <mxPoint x="310" y="100" as="sourcePoint" />
            <mxPoint x="360" y="50" as="targetPoint" />
          </mxGeometry>
        </mxCell>
        <mxCell id="VfnCZ4Grp9ZNNskB4M9N-39" value="" style="endArrow=none;html=1;rounded=0;exitX=0.667;exitY=0;exitDx=0;exitDy=0;exitPerimeter=0;entryX=0.25;entryY=1;entryDx=0;entryDy=0;entryPerimeter=0;" edge="1" parent="1" source="VfnCZ4Grp9ZNNskB4M9N-36" target="VfnCZ4Grp9ZNNskB4M9N-3">
          <mxGeometry width="50" height="50" relative="1" as="geometry">
            <mxPoint x="330" y="130" as="sourcePoint" />
            <mxPoint x="380" y="80" as="targetPoint" />
          </mxGeometry>
        </mxCell>
        <mxCell id="VfnCZ4Grp9ZNNskB4M9N-40" value="" style="endArrow=none;html=1;rounded=0;exitX=0.313;exitY=0.023;exitDx=0;exitDy=0;exitPerimeter=0;entryX=0.75;entryY=1;entryDx=0;entryDy=0;" edge="1" parent="1" source="VfnCZ4Grp9ZNNskB4M9N-35" target="VfnCZ4Grp9ZNNskB4M9N-3">
          <mxGeometry width="50" height="50" relative="1" as="geometry">
            <mxPoint x="510" y="120" as="sourcePoint" />
            <mxPoint x="470" y="50" as="targetPoint" />
          </mxGeometry>
        </mxCell>
        <mxCell id="VfnCZ4Grp9ZNNskB4M9N-42" value="&lt;font style=&quot;font-size: 14px;&quot;&gt;Amount&lt;/font&gt;" style="ellipse;whiteSpace=wrap;html=1;" vertex="1" parent="1">
          <mxGeometry x="795" y="700" width="90" height="60" as="geometry" />
        </mxCell>
        <mxCell id="VfnCZ4Grp9ZNNskB4M9N-43" value="&lt;font style=&quot;font-size: 14px;&quot;&gt;&lt;u&gt;Payment_ID&lt;/u&gt;&lt;/font&gt;" style="ellipse;whiteSpace=wrap;html=1;" vertex="1" parent="1">
          <mxGeometry x="670" y="770" width="90" height="60" as="geometry" />
        </mxCell>
        <mxCell id="VfnCZ4Grp9ZNNskB4M9N-44" value="&lt;font style=&quot;font-size: 14px;&quot;&gt;&lt;u style=&quot;border-color: var(--border-color);&quot;&gt;&lt;b style=&quot;border-color: var(--border-color);&quot;&gt;FK:&amp;nbsp;&lt;/b&gt;&lt;/u&gt;PSID&lt;/font&gt;" style="ellipse;whiteSpace=wrap;html=1;" vertex="1" parent="1">
          <mxGeometry x="795" y="600" width="90" height="60" as="geometry" />
        </mxCell>
        <mxCell id="VfnCZ4Grp9ZNNskB4M9N-45" value="" style="endArrow=none;html=1;rounded=0;exitX=0.75;exitY=0;exitDx=0;exitDy=0;" edge="1" parent="1" source="VfnCZ4Grp9ZNNskB4M9N-6">
          <mxGeometry width="50" height="50" relative="1" as="geometry">
            <mxPoint x="724.5" y="620" as="sourcePoint" />
            <mxPoint x="724.5" y="570" as="targetPoint" />
          </mxGeometry>
        </mxCell>
        <mxCell id="VfnCZ4Grp9ZNNskB4M9N-46" value="" style="endArrow=none;html=1;rounded=0;exitX=0.613;exitY=0.003;exitDx=0;exitDy=0;exitPerimeter=0;entryX=0.75;entryY=1;entryDx=0;entryDy=0;" edge="1" parent="1" source="VfnCZ4Grp9ZNNskB4M9N-43" target="VfnCZ4Grp9ZNNskB4M9N-6">
          <mxGeometry width="50" height="50" relative="1" as="geometry">
            <mxPoint x="605" y="750" as="sourcePoint" />
            <mxPoint x="655" y="700" as="targetPoint" />
          </mxGeometry>
        </mxCell>
        <mxCell id="VfnCZ4Grp9ZNNskB4M9N-47" value="" style="endArrow=none;html=1;rounded=0;entryX=0;entryY=0.5;entryDx=0;entryDy=0;exitX=1.003;exitY=0.123;exitDx=0;exitDy=0;exitPerimeter=0;" edge="1" parent="1" source="VfnCZ4Grp9ZNNskB4M9N-6" target="VfnCZ4Grp9ZNNskB4M9N-44">
          <mxGeometry width="50" height="50" relative="1" as="geometry">
            <mxPoint x="705" y="660" as="sourcePoint" />
            <mxPoint x="755" y="610" as="targetPoint" />
          </mxGeometry>
        </mxCell>
        <mxCell id="VfnCZ4Grp9ZNNskB4M9N-48" value="" style="endArrow=none;html=1;rounded=0;exitX=0.997;exitY=0.883;exitDx=0;exitDy=0;exitPerimeter=0;" edge="1" parent="1" source="VfnCZ4Grp9ZNNskB4M9N-6" target="VfnCZ4Grp9ZNNskB4M9N-42">
          <mxGeometry width="50" height="50" relative="1" as="geometry">
            <mxPoint x="705" y="680" as="sourcePoint" />
            <mxPoint x="755" y="630" as="targetPoint" />
          </mxGeometry>
        </mxCell>
        <mxCell id="VfnCZ4Grp9ZNNskB4M9N-49" value="&lt;font style=&quot;font-size: 14px;&quot;&gt;&lt;u style=&quot;border-color: var(--border-color);&quot;&gt;&lt;b style=&quot;border-color: var(--border-color);&quot;&gt;FK:&amp;nbsp;&lt;/b&gt;&lt;/u&gt;FHID&lt;/font&gt;" style="ellipse;whiteSpace=wrap;html=1;" vertex="1" parent="1">
          <mxGeometry x="335" y="690" width="90" height="60" as="geometry" />
        </mxCell>
        <mxCell id="VfnCZ4Grp9ZNNskB4M9N-50" value="&lt;font style=&quot;font-size: 14px;&quot;&gt;&lt;u&gt;Ticket_NO.&lt;/u&gt;&lt;/font&gt;" style="ellipse;whiteSpace=wrap;html=1;" vertex="1" parent="1">
          <mxGeometry x="270" y="810" width="90" height="60" as="geometry" />
        </mxCell>
        <mxCell id="VfnCZ4Grp9ZNNskB4M9N-51" value="&lt;font style=&quot;font-size: 14px;&quot;&gt;Source&lt;/font&gt;" style="ellipse;whiteSpace=wrap;html=1;" vertex="1" parent="1">
          <mxGeometry x="-40" y="710" width="90" height="60" as="geometry" />
        </mxCell>
        <mxCell id="VfnCZ4Grp9ZNNskB4M9N-52" value="&lt;font style=&quot;font-size: 14px;&quot;&gt;Seat_NO&lt;/font&gt;" style="ellipse;whiteSpace=wrap;html=1;" vertex="1" parent="1">
          <mxGeometry x="-17.5" y="620" width="90" height="60" as="geometry" />
        </mxCell>
        <mxCell id="VfnCZ4Grp9ZNNskB4M9N-53" value="&lt;font style=&quot;font-size: 14px;&quot;&gt;Destination&lt;/font&gt;" style="ellipse;whiteSpace=wrap;html=1;" vertex="1" parent="1">
          <mxGeometry x="130" y="830" width="90" height="60" as="geometry" />
        </mxCell>
        <mxCell id="VfnCZ4Grp9ZNNskB4M9N-54" value="&lt;font style=&quot;font-size: 14px;&quot;&gt;&lt;u style=&quot;border-color: var(--border-color);&quot;&gt;&lt;b style=&quot;border-color: var(--border-color);&quot;&gt;FK:&amp;nbsp;&lt;/b&gt;&lt;/u&gt;PSID&lt;/font&gt;" style="ellipse;whiteSpace=wrap;html=1;" vertex="1" parent="1">
          <mxGeometry x="120" y="570" width="90" height="60" as="geometry" />
        </mxCell>
        <mxCell id="VfnCZ4Grp9ZNNskB4M9N-55" value="" style="endArrow=none;html=1;rounded=0;exitX=0;exitY=0.25;exitDx=0;exitDy=0;entryX=1;entryY=0.657;entryDx=0;entryDy=0;entryPerimeter=0;" edge="1" parent="1" source="VfnCZ4Grp9ZNNskB4M9N-5" target="VfnCZ4Grp9ZNNskB4M9N-52">
          <mxGeometry width="50" height="50" relative="1" as="geometry">
            <mxPoint x="10" y="680" as="sourcePoint" />
            <mxPoint x="60" y="630" as="targetPoint" />
          </mxGeometry>
        </mxCell>
        <mxCell id="VfnCZ4Grp9ZNNskB4M9N-56" value="" style="endArrow=none;html=1;rounded=0;entryX=1;entryY=0.5;entryDx=0;entryDy=0;" edge="1" parent="1" source="VfnCZ4Grp9ZNNskB4M9N-49" target="VfnCZ4Grp9ZNNskB4M9N-5">
          <mxGeometry width="50" height="50" relative="1" as="geometry">
            <mxPoint x="320" y="665" as="sourcePoint" />
            <mxPoint x="250" y="640" as="targetPoint" />
          </mxGeometry>
        </mxCell>
        <mxCell id="VfnCZ4Grp9ZNNskB4M9N-57" value="" style="endArrow=none;html=1;rounded=0;exitX=0;exitY=0;exitDx=0;exitDy=0;entryX=0.87;entryY=1.023;entryDx=0;entryDy=0;entryPerimeter=0;" edge="1" parent="1" source="VfnCZ4Grp9ZNNskB4M9N-50" target="VfnCZ4Grp9ZNNskB4M9N-5">
          <mxGeometry width="50" height="50" relative="1" as="geometry">
            <mxPoint x="320" y="705" as="sourcePoint" />
            <mxPoint x="250" y="680" as="targetPoint" />
          </mxGeometry>
        </mxCell>
        <mxCell id="VfnCZ4Grp9ZNNskB4M9N-58" value="" style="endArrow=none;html=1;rounded=0;exitX=0.622;exitY=0.003;exitDx=0;exitDy=0;exitPerimeter=0;entryX=0.5;entryY=1;entryDx=0;entryDy=0;entryPerimeter=0;" edge="1" parent="1" source="VfnCZ4Grp9ZNNskB4M9N-53" target="VfnCZ4Grp9ZNNskB4M9N-5">
          <mxGeometry width="50" height="50" relative="1" as="geometry">
            <mxPoint x="170" y="760" as="sourcePoint" />
            <mxPoint x="165" y="700" as="targetPoint" />
          </mxGeometry>
        </mxCell>
        <mxCell id="VfnCZ4Grp9ZNNskB4M9N-59" value="" style="endArrow=none;html=1;rounded=0;exitX=0.417;exitY=0;exitDx=0;exitDy=0;exitPerimeter=0;entryX=0.5;entryY=1;entryDx=0;entryDy=0;" edge="1" parent="1" source="VfnCZ4Grp9ZNNskB4M9N-5" target="VfnCZ4Grp9ZNNskB4M9N-54">
          <mxGeometry width="50" height="50" relative="1" as="geometry">
            <mxPoint x="200" y="630" as="sourcePoint" />
            <mxPoint x="200" y="580" as="targetPoint" />
          </mxGeometry>
        </mxCell>
        <mxCell id="VfnCZ4Grp9ZNNskB4M9N-60" value="" style="endArrow=none;html=1;rounded=0;exitX=0;exitY=0.5;exitDx=0;exitDy=0;entryX=1;entryY=0;entryDx=0;entryDy=0;" edge="1" parent="1" source="VfnCZ4Grp9ZNNskB4M9N-5" target="VfnCZ4Grp9ZNNskB4M9N-51">
          <mxGeometry width="50" height="50" relative="1" as="geometry">
            <mxPoint x="120" y="725" as="sourcePoint" />
            <mxPoint x="50" y="700" as="targetPoint" />
          </mxGeometry>
        </mxCell>
        <mxCell id="VfnCZ4Grp9ZNNskB4M9N-61" value="" style="endArrow=none;html=1;rounded=0;exitX=0.987;exitY=0.337;exitDx=0;exitDy=0;exitPerimeter=0;" edge="1" parent="1">
          <mxGeometry width="50" height="50" relative="1" as="geometry">
            <mxPoint x="288.8299999999999" y="380.2199999999998" as="sourcePoint" />
            <mxPoint x="350" y="380" as="targetPoint" />
          </mxGeometry>
        </mxCell>
        <mxCell id="VfnCZ4Grp9ZNNskB4M9N-64" value="" style="endArrow=none;html=1;rounded=0;exitX=0;exitY=0.5;exitDx=0;exitDy=0;" edge="1" parent="1" source="VfnCZ4Grp9ZNNskB4M9N-10">
          <mxGeometry width="50" height="50" relative="1" as="geometry">
            <mxPoint x="470" y="450" as="sourcePoint" />
            <mxPoint x="460" y="400" as="targetPoint" />
          </mxGeometry>
        </mxCell>
        <mxCell id="VfnCZ4Grp9ZNNskB4M9N-65" value="" style="endArrow=none;html=1;rounded=0;exitX=0.667;exitY=0;exitDx=0;exitDy=0;exitPerimeter=0;entryX=0.437;entryY=1.03;entryDx=0;entryDy=0;entryPerimeter=0;" edge="1" parent="1" target="VfnCZ4Grp9ZNNskB4M9N-1">
          <mxGeometry width="50" height="50" relative="1" as="geometry">
            <mxPoint x="400.0300000000002" y="460" as="sourcePoint" />
            <mxPoint x="425" y="400" as="targetPoint" />
          </mxGeometry>
        </mxCell>
        <mxCell id="VfnCZ4Grp9ZNNskB4M9N-66" value="" style="endArrow=none;html=1;rounded=0;exitX=1;exitY=0.5;exitDx=0;exitDy=0;entryX=0;entryY=0.5;entryDx=0;entryDy=0;" edge="1" parent="1" source="VfnCZ4Grp9ZNNskB4M9N-1" target="VfnCZ4Grp9ZNNskB4M9N-100">
          <mxGeometry width="50" height="50" relative="1" as="geometry">
            <mxPoint x="515" y="380" as="sourcePoint" />
            <mxPoint x="571.21" y="333.79999999999995" as="targetPoint" />
          </mxGeometry>
        </mxCell>
        <mxCell id="VfnCZ4Grp9ZNNskB4M9N-67" value="" style="endArrow=none;html=1;rounded=0;exitX=0.17;exitY=0.003;exitDx=0;exitDy=0;exitPerimeter=0;" edge="1" parent="1" source="VfnCZ4Grp9ZNNskB4M9N-1">
          <mxGeometry width="50" height="50" relative="1" as="geometry">
            <mxPoint x="280" y="350" as="sourcePoint" />
            <mxPoint x="330" y="300" as="targetPoint" />
          </mxGeometry>
        </mxCell>
        <mxCell id="VfnCZ4Grp9ZNNskB4M9N-68" value="" style="endArrow=none;html=1;rounded=0;exitX=0.917;exitY=0;exitDx=0;exitDy=0;exitPerimeter=0;entryX=0.333;entryY=1;entryDx=0;entryDy=0;entryPerimeter=0;" edge="1" parent="1" source="VfnCZ4Grp9ZNNskB4M9N-1">
          <mxGeometry width="50" height="50" relative="1" as="geometry">
            <mxPoint x="430" y="350" as="sourcePoint" />
            <mxPoint x="499.9699999999998" y="300" as="targetPoint" />
          </mxGeometry>
        </mxCell>
        <mxCell id="VfnCZ4Grp9ZNNskB4M9N-69" value="" style="endArrow=none;html=1;rounded=0;exitX=0.5;exitY=0;exitDx=0;exitDy=0;entryX=0.5;entryY=1;entryDx=0;entryDy=0;" edge="1" parent="1" target="VfnCZ4Grp9ZNNskB4M9N-4">
          <mxGeometry width="50" height="50" relative="1" as="geometry">
            <mxPoint x="15" y="210" as="sourcePoint" />
            <mxPoint x="145" y="145" as="targetPoint" />
          </mxGeometry>
        </mxCell>
        <mxCell id="VfnCZ4Grp9ZNNskB4M9N-70" value="" style="endArrow=none;html=1;rounded=0;entryX=0.167;entryY=1;entryDx=0;entryDy=0;entryPerimeter=0;" edge="1" parent="1" target="VfnCZ4Grp9ZNNskB4M9N-4">
          <mxGeometry width="50" height="50" relative="1" as="geometry">
            <mxPoint x="-88.75569476087821" y="175.63028799224412" as="sourcePoint" />
            <mxPoint x="70" y="140" as="targetPoint" />
          </mxGeometry>
        </mxCell>
        <mxCell id="VfnCZ4Grp9ZNNskB4M9N-71" value="" style="endArrow=none;html=1;rounded=0;exitX=0.093;exitY=0.017;exitDx=0;exitDy=0;exitPerimeter=0;" edge="1" parent="1" source="VfnCZ4Grp9ZNNskB4M9N-4" target="VfnCZ4Grp9ZNNskB4M9N-17">
          <mxGeometry width="50" height="50" relative="1" as="geometry">
            <mxPoint x="-20" y="100" as="sourcePoint" />
            <mxPoint x="30" y="50" as="targetPoint" />
            <Array as="points" />
          </mxGeometry>
        </mxCell>
        <mxCell id="VfnCZ4Grp9ZNNskB4M9N-72" value="" style="endArrow=none;html=1;rounded=0;entryX=0;entryY=0.5;entryDx=0;entryDy=0;exitX=1;exitY=0.5;exitDx=0;exitDy=0;" edge="1" parent="1" source="VfnCZ4Grp9ZNNskB4M9N-2" target="VfnCZ4Grp9ZNNskB4M9N-24">
          <mxGeometry width="50" height="50" relative="1" as="geometry">
            <mxPoint x="920" y="130" as="sourcePoint" />
            <mxPoint x="960" y="129.5" as="targetPoint" />
          </mxGeometry>
        </mxCell>
        <mxCell id="VfnCZ4Grp9ZNNskB4M9N-73" value="" style="endArrow=none;html=1;rounded=0;exitX=0.5;exitY=0;exitDx=0;exitDy=0;entryX=0.4;entryY=1.003;entryDx=0;entryDy=0;entryPerimeter=0;" edge="1" parent="1" source="VfnCZ4Grp9ZNNskB4M9N-23" target="VfnCZ4Grp9ZNNskB4M9N-2">
          <mxGeometry width="50" height="50" relative="1" as="geometry">
            <mxPoint x="750" y="210" as="sourcePoint" />
            <mxPoint x="800" y="160" as="targetPoint" />
          </mxGeometry>
        </mxCell>
        <mxCell id="VfnCZ4Grp9ZNNskB4M9N-74" value="" style="endArrow=none;html=1;rounded=0;entryX=0.5;entryY=1;entryDx=0;entryDy=0;exitX=0.25;exitY=0;exitDx=0;exitDy=0;" edge="1" parent="1" source="VfnCZ4Grp9ZNNskB4M9N-2" target="VfnCZ4Grp9ZNNskB4M9N-25">
          <mxGeometry width="50" height="50" relative="1" as="geometry">
            <mxPoint x="870" y="100" as="sourcePoint" />
            <mxPoint x="800" y="40" as="targetPoint" />
          </mxGeometry>
        </mxCell>
        <mxCell id="VfnCZ4Grp9ZNNskB4M9N-75" value="&lt;i&gt;&lt;b&gt;&lt;font style=&quot;font-size: 14px;&quot;&gt;Allocated for&lt;/font&gt;&lt;/b&gt;&lt;/i&gt;" style="rhombus;whiteSpace=wrap;html=1;fillColor=#fff2cc;strokeColor=#d6b656;" vertex="1" parent="1">
          <mxGeometry x="145" y="80" width="110" height="80" as="geometry" />
        </mxCell>
        <mxCell id="VfnCZ4Grp9ZNNskB4M9N-76" value="" style="shape=link;html=1;rounded=0;entryX=0.083;entryY=1;entryDx=0;entryDy=0;entryPerimeter=0;exitX=1;exitY=0.5;exitDx=0;exitDy=0;" edge="1" parent="1" source="VfnCZ4Grp9ZNNskB4M9N-75" target="VfnCZ4Grp9ZNNskB4M9N-3">
          <mxGeometry width="100" relative="1" as="geometry">
            <mxPoint x="210" y="149.5" as="sourcePoint" />
            <mxPoint x="310" y="149.5" as="targetPoint" />
          </mxGeometry>
        </mxCell>
        <mxCell id="VfnCZ4Grp9ZNNskB4M9N-77" value="" style="shape=link;html=1;rounded=0;entryX=0;entryY=0.5;entryDx=0;entryDy=0;" edge="1" parent="1" target="VfnCZ4Grp9ZNNskB4M9N-75">
          <mxGeometry width="100" relative="1" as="geometry">
            <mxPoint x="60" y="119" as="sourcePoint" />
            <mxPoint x="160" y="119" as="targetPoint" />
          </mxGeometry>
        </mxCell>
        <mxCell id="VfnCZ4Grp9ZNNskB4M9N-78" value="&lt;b&gt;&lt;i&gt;&lt;font style=&quot;font-size: 14px;&quot;&gt;Browse for&lt;/font&gt;&lt;/i&gt;&lt;/b&gt;" style="rhombus;whiteSpace=wrap;html=1;fillColor=#fff2cc;strokeColor=#d6b656;" vertex="1" parent="1">
          <mxGeometry x="375" y="180" width="105" height="80" as="geometry" />
        </mxCell>
        <mxCell id="VfnCZ4Grp9ZNNskB4M9N-79" value="" style="shape=link;html=1;rounded=0;entryX=0.5;entryY=1;entryDx=0;entryDy=0;exitX=0.5;exitY=0;exitDx=0;exitDy=0;" edge="1" parent="1" source="VfnCZ4Grp9ZNNskB4M9N-78" target="VfnCZ4Grp9ZNNskB4M9N-3">
          <mxGeometry width="100" relative="1" as="geometry">
            <mxPoint x="410" y="129" as="sourcePoint" />
            <mxPoint x="510" y="129" as="targetPoint" />
          </mxGeometry>
        </mxCell>
        <mxCell id="VfnCZ4Grp9ZNNskB4M9N-80" value="" style="shape=link;html=1;rounded=0;exitX=0.5;exitY=0;exitDx=0;exitDy=0;entryX=0.5;entryY=1;entryDx=0;entryDy=0;" edge="1" parent="1" source="VfnCZ4Grp9ZNNskB4M9N-1" target="VfnCZ4Grp9ZNNskB4M9N-78">
          <mxGeometry width="100" relative="1" as="geometry">
            <mxPoint x="350" y="230" as="sourcePoint" />
            <mxPoint x="450" y="230" as="targetPoint" />
          </mxGeometry>
        </mxCell>
        <mxCell id="VfnCZ4Grp9ZNNskB4M9N-82" value="&lt;i&gt;&lt;font style=&quot;font-size: 14px;&quot;&gt;&lt;b&gt;Schedules&lt;/b&gt;&lt;/font&gt;&lt;/i&gt;" style="rhombus;whiteSpace=wrap;html=1;fillColor=#fff2cc;strokeColor=#d6b656;" vertex="1" parent="1">
          <mxGeometry x="650" y="70" width="90" height="80" as="geometry" />
        </mxCell>
        <mxCell id="VfnCZ4Grp9ZNNskB4M9N-83" value="" style="shape=link;html=1;rounded=0;entryX=0;entryY=0.5;entryDx=0;entryDy=0;exitX=0.879;exitY=1.038;exitDx=0;exitDy=0;exitPerimeter=0;" edge="1" parent="1" source="VfnCZ4Grp9ZNNskB4M9N-3" target="VfnCZ4Grp9ZNNskB4M9N-82">
          <mxGeometry width="100" relative="1" as="geometry">
            <mxPoint x="490" y="50" as="sourcePoint" />
            <mxPoint x="590" y="50" as="targetPoint" />
          </mxGeometry>
        </mxCell>
        <mxCell id="VfnCZ4Grp9ZNNskB4M9N-84" value="" style="shape=link;html=1;rounded=0;entryX=0.015;entryY=0.643;entryDx=0;entryDy=0;entryPerimeter=0;exitX=1;exitY=0.5;exitDx=0;exitDy=0;" edge="1" parent="1" source="VfnCZ4Grp9ZNNskB4M9N-82" target="VfnCZ4Grp9ZNNskB4M9N-2">
          <mxGeometry width="100" relative="1" as="geometry">
            <mxPoint x="705" y="139.5" as="sourcePoint" />
            <mxPoint x="805" y="139.5" as="targetPoint" />
          </mxGeometry>
        </mxCell>
        <mxCell id="VfnCZ4Grp9ZNNskB4M9N-85" value="&lt;i&gt;&lt;b&gt;&lt;font style=&quot;font-size: 14px;&quot;&gt;Cancels&lt;/font&gt;&lt;/b&gt;&lt;/i&gt;" style="rhombus;whiteSpace=wrap;html=1;fillColor=#fff2cc;strokeColor=#d6b656;" vertex="1" parent="1">
          <mxGeometry x="440" y="520" width="100" height="80" as="geometry" />
        </mxCell>
        <mxCell id="VfnCZ4Grp9ZNNskB4M9N-86" value="&lt;b&gt;&lt;i&gt;&lt;font style=&quot;font-size: 14px;&quot;&gt;Reserves&lt;/font&gt;&lt;/i&gt;&lt;/b&gt;" style="rhombus;whiteSpace=wrap;html=1;fillColor=#fff2cc;strokeColor=#d6b656;" vertex="1" parent="1">
          <mxGeometry x="210" y="520" width="100" height="80" as="geometry" />
        </mxCell>
        <mxCell id="VfnCZ4Grp9ZNNskB4M9N-87" value="" style="shape=link;html=1;rounded=0;entryX=0.077;entryY=1.043;entryDx=0;entryDy=0;entryPerimeter=0;exitX=0.5;exitY=0;exitDx=0;exitDy=0;" edge="1" parent="1" source="VfnCZ4Grp9ZNNskB4M9N-86" target="VfnCZ4Grp9ZNNskB4M9N-1">
          <mxGeometry width="100" relative="1" as="geometry">
            <mxPoint x="265" y="519" as="sourcePoint" />
            <mxPoint x="365" y="519" as="targetPoint" />
          </mxGeometry>
        </mxCell>
        <mxCell id="VfnCZ4Grp9ZNNskB4M9N-88" value="" style="shape=link;html=1;rounded=0;width=-4;entryX=0.5;entryY=1;entryDx=0;entryDy=0;exitX=0.923;exitY=-0.03;exitDx=0;exitDy=0;exitPerimeter=0;" edge="1" parent="1" source="VfnCZ4Grp9ZNNskB4M9N-5" target="VfnCZ4Grp9ZNNskB4M9N-86">
          <mxGeometry width="100" relative="1" as="geometry">
            <mxPoint x="210" y="630" as="sourcePoint" />
            <mxPoint x="310" y="630" as="targetPoint" />
          </mxGeometry>
        </mxCell>
        <mxCell id="VfnCZ4Grp9ZNNskB4M9N-89" value="" style="shape=link;html=1;rounded=0;width=3;entryX=0.5;entryY=0;entryDx=0;entryDy=0;" edge="1" parent="1" target="VfnCZ4Grp9ZNNskB4M9N-85">
          <mxGeometry width="100" relative="1" as="geometry">
            <mxPoint x="440" y="400" as="sourcePoint" />
            <mxPoint x="540" y="400" as="targetPoint" />
            <Array as="points" />
          </mxGeometry>
        </mxCell>
        <mxCell id="VfnCZ4Grp9ZNNskB4M9N-90" value="" style="shape=link;html=1;rounded=0;exitX=1;exitY=0.167;exitDx=0;exitDy=0;entryX=0.5;entryY=1;entryDx=0;entryDy=0;exitPerimeter=0;" edge="1" parent="1" source="VfnCZ4Grp9ZNNskB4M9N-5" target="VfnCZ4Grp9ZNNskB4M9N-85">
          <mxGeometry width="100" relative="1" as="geometry">
            <mxPoint x="465" y="590" as="sourcePoint" />
            <mxPoint x="565" y="590" as="targetPoint" />
          </mxGeometry>
        </mxCell>
        <mxCell id="VfnCZ4Grp9ZNNskB4M9N-91" value="" style="shape=link;html=1;rounded=0;exitX=1.023;exitY=0.877;exitDx=0;exitDy=0;exitPerimeter=0;" edge="1" parent="1" source="VfnCZ4Grp9ZNNskB4M9N-5">
          <mxGeometry width="100" relative="1" as="geometry">
            <mxPoint x="245" y="749.5" as="sourcePoint" />
            <mxPoint x="450" y="820" as="targetPoint" />
          </mxGeometry>
        </mxCell>
        <mxCell id="VfnCZ4Grp9ZNNskB4M9N-92" value="&lt;b&gt;&lt;i&gt;&lt;font style=&quot;font-size: 14px;&quot;&gt;Paid&lt;/font&gt;&lt;/i&gt;&lt;/b&gt;" style="rhombus;whiteSpace=wrap;html=1;fillColor=#fff2cc;strokeColor=#d6b656;" vertex="1" parent="1">
          <mxGeometry x="450" y="780" width="90" height="80" as="geometry" />
        </mxCell>
        <mxCell id="VfnCZ4Grp9ZNNskB4M9N-93" value="" style="shape=link;html=1;rounded=0;entryX=0.25;entryY=1;entryDx=0;entryDy=0;" edge="1" parent="1" target="VfnCZ4Grp9ZNNskB4M9N-6">
          <mxGeometry width="100" relative="1" as="geometry">
            <mxPoint x="530" y="819.5" as="sourcePoint" />
            <mxPoint x="630" y="819.5" as="targetPoint" />
          </mxGeometry>
        </mxCell>
        <mxCell id="VfnCZ4Grp9ZNNskB4M9N-94" value="" style="shape=link;html=1;rounded=0;width=3;entryX=0.662;entryY=1.043;entryDx=0;entryDy=0;exitX=1;exitY=0.5;exitDx=0;exitDy=0;entryPerimeter=0;" edge="1" parent="1" source="VfnCZ4Grp9ZNNskB4M9N-95" target="VfnCZ4Grp9ZNNskB4M9N-2">
          <mxGeometry width="100" relative="1" as="geometry">
            <mxPoint x="1000" y="840" as="sourcePoint" />
            <mxPoint x="820" y="160" as="targetPoint" />
            <Array as="points">
              <mxPoint x="910" y="950" />
            </Array>
          </mxGeometry>
        </mxCell>
        <mxCell id="VfnCZ4Grp9ZNNskB4M9N-95" value="&lt;b&gt;&lt;i&gt;&lt;font style=&quot;font-size: 14px;&quot;&gt;Sells&lt;/font&gt;&lt;/i&gt;&lt;/b&gt;" style="rhombus;whiteSpace=wrap;html=1;fillColor=#fff2cc;strokeColor=#d6b656;" vertex="1" parent="1">
          <mxGeometry x="570" y="910" width="90" height="80" as="geometry" />
        </mxCell>
        <mxCell id="VfnCZ4Grp9ZNNskB4M9N-96" value="" style="shape=link;html=1;rounded=0;entryX=0;entryY=0.5;entryDx=0;entryDy=0;exitX=0.603;exitY=1.037;exitDx=0;exitDy=0;exitPerimeter=0;" edge="1" parent="1" source="VfnCZ4Grp9ZNNskB4M9N-5" target="VfnCZ4Grp9ZNNskB4M9N-95">
          <mxGeometry width="100" relative="1" as="geometry">
            <mxPoint x="220" y="830" as="sourcePoint" />
            <mxPoint x="1000" y="950" as="targetPoint" />
            <Array as="points">
              <mxPoint x="290" y="950" />
            </Array>
          </mxGeometry>
        </mxCell>
        <mxCell id="VfnCZ4Grp9ZNNskB4M9N-97" value="&lt;font style=&quot;font-size: 14px;&quot;&gt;Crew ID&lt;/font&gt;" style="ellipse;whiteSpace=wrap;html=1;align=center;fontStyle=4;" vertex="1" parent="1">
          <mxGeometry x="-15" y="180" width="105" height="60" as="geometry" />
        </mxCell>
        <mxCell id="VfnCZ4Grp9ZNNskB4M9N-99" value="&lt;font style=&quot;font-size: 14px;&quot;&gt;Name&lt;/font&gt;" style="ellipse;shape=doubleEllipse;margin=3;whiteSpace=wrap;html=1;align=center;" vertex="1" parent="1">
          <mxGeometry x="465" y="240" width="105" height="60" as="geometry" />
        </mxCell>
        <mxCell id="VfnCZ4Grp9ZNNskB4M9N-100" value="&lt;font style=&quot;font-size: 14px;&quot;&gt;Age&lt;/font&gt;" style="ellipse;whiteSpace=wrap;html=1;align=center;dashed=1;" vertex="1" parent="1">
          <mxGeometry x="560" y="330" width="100" height="60" as="geometry" />
        </mxCell>
        <mxCell id="VfnCZ4Grp9ZNNskB4M9N-101" value="&lt;font style=&quot;font-size: 14px;&quot;&gt;Contact_NO.&lt;/font&gt;" style="ellipse;shape=doubleEllipse;margin=3;whiteSpace=wrap;html=1;align=center;" vertex="1" parent="1">
          <mxGeometry x="335" y="460" width="105" height="60" as="geometry" />
        </mxCell>
        <mxCell id="VfnCZ4Grp9ZNNskB4M9N-102" value="&lt;font style=&quot;font-size: 14px;&quot;&gt;Address&lt;/font&gt;" style="ellipse;shape=doubleEllipse;margin=3;whiteSpace=wrap;html=1;align=center;" vertex="1" parent="1">
          <mxGeometry x="190" y="350" width="105" height="60" as="geometry" />
        </mxCell>
        <mxCell id="VfnCZ4Grp9ZNNskB4M9N-103" value="&lt;font style=&quot;font-size: 14px;&quot;&gt;&lt;u style=&quot;border-color: var(--border-color);&quot;&gt;&lt;b style=&quot;border-color: var(--border-color);&quot;&gt;FK:&amp;nbsp;&lt;/b&gt;&lt;/u&gt;Airline_NO&lt;/font&gt;" style="ellipse;whiteSpace=wrap;html=1;" vertex="1" parent="1">
          <mxGeometry x="-10" y="810" width="120" height="60" as="geometry" />
        </mxCell>
        <mxCell id="VfnCZ4Grp9ZNNskB4M9N-105" value="" style="endArrow=none;html=1;rounded=0;entryX=0.063;entryY=1.01;entryDx=0;entryDy=0;entryPerimeter=0;exitX=0.778;exitY=0.083;exitDx=0;exitDy=0;exitPerimeter=0;" edge="1" parent="1" source="VfnCZ4Grp9ZNNskB4M9N-103" target="VfnCZ4Grp9ZNNskB4M9N-5">
          <mxGeometry width="50" height="50" relative="1" as="geometry">
            <mxPoint x="70" y="825" as="sourcePoint" />
            <mxPoint x="120" y="775" as="targetPoint" />
          </mxGeometry>
        </mxCell>
        <mxCell id="VfnCZ4Grp9ZNNskB4M9N-106" value="&lt;b&gt;&lt;font style=&quot;font-size: 14px;&quot;&gt;1&lt;/font&gt;&lt;/b&gt;" style="text;html=1;align=center;verticalAlign=middle;resizable=0;points=[];autosize=1;strokeColor=none;fillColor=none;" vertex="1" parent="1">
          <mxGeometry x="350" y="25" width="30" height="30" as="geometry" />
        </mxCell>
        <mxCell id="VfnCZ4Grp9ZNNskB4M9N-108" value="&lt;font style=&quot;font-size: 14px;&quot;&gt;&lt;b&gt;M&lt;/b&gt;&lt;/font&gt;" style="text;html=1;align=center;verticalAlign=middle;resizable=0;points=[];autosize=1;strokeColor=none;fillColor=none;" vertex="1" parent="1">
          <mxGeometry x="50" y="90" width="40" height="30" as="geometry" />
        </mxCell>
        <mxCell id="VfnCZ4Grp9ZNNskB4M9N-109" value="&lt;b&gt;&lt;font style=&quot;font-size: 14px;&quot;&gt;1&lt;/font&gt;&lt;/b&gt;" style="text;html=1;align=center;verticalAlign=middle;resizable=0;points=[];autosize=1;strokeColor=none;fillColor=none;" vertex="1" parent="1">
          <mxGeometry x="800" y="105" width="30" height="30" as="geometry" />
        </mxCell>
        <mxCell id="VfnCZ4Grp9ZNNskB4M9N-111" value="&lt;b&gt;&lt;font style=&quot;font-size: 14px;&quot;&gt;1&lt;/font&gt;&lt;/b&gt;" style="text;html=1;align=center;verticalAlign=middle;resizable=0;points=[];autosize=1;strokeColor=none;fillColor=none;" vertex="1" parent="1">
          <mxGeometry x="320" y="390" width="30" height="30" as="geometry" />
        </mxCell>
        <mxCell id="VfnCZ4Grp9ZNNskB4M9N-112" value="&lt;b&gt;&lt;font style=&quot;font-size: 14px;&quot;&gt;1&lt;/font&gt;&lt;/b&gt;" style="text;html=1;align=center;verticalAlign=middle;resizable=0;points=[];autosize=1;strokeColor=none;fillColor=none;" vertex="1" parent="1">
          <mxGeometry x="390" y="310" width="30" height="30" as="geometry" />
        </mxCell>
        <mxCell id="VfnCZ4Grp9ZNNskB4M9N-113" value="&lt;font style=&quot;font-size: 14px;&quot;&gt;&lt;b&gt;M&lt;/b&gt;&lt;/font&gt;" style="text;html=1;align=center;verticalAlign=middle;resizable=0;points=[];autosize=1;strokeColor=none;fillColor=none;" vertex="1" parent="1">
          <mxGeometry x="435" y="40" width="40" height="30" as="geometry" />
        </mxCell>
        <mxCell id="VfnCZ4Grp9ZNNskB4M9N-114" value="&lt;font style=&quot;font-size: 14px;&quot;&gt;&lt;b&gt;M&lt;/b&gt;&lt;/font&gt;" style="text;html=1;align=center;verticalAlign=middle;resizable=0;points=[];autosize=1;strokeColor=none;fillColor=none;" vertex="1" parent="1">
          <mxGeometry x="240" y="670" width="40" height="30" as="geometry" />
        </mxCell>
        <mxCell id="VfnCZ4Grp9ZNNskB4M9N-115" value="&lt;font style=&quot;font-size: 14px;&quot;&gt;&lt;b&gt;M&lt;/b&gt;&lt;/font&gt;" style="text;html=1;align=center;verticalAlign=middle;resizable=0;points=[];autosize=1;strokeColor=none;fillColor=none;" vertex="1" parent="1">
          <mxGeometry x="210" y="660" width="40" height="30" as="geometry" />
        </mxCell>
        <mxCell id="VfnCZ4Grp9ZNNskB4M9N-117" value="&lt;b&gt;&lt;font style=&quot;font-size: 14px;&quot;&gt;1&lt;/font&gt;&lt;/b&gt;" style="text;html=1;align=center;verticalAlign=middle;resizable=0;points=[];autosize=1;strokeColor=none;fillColor=none;" vertex="1" parent="1">
          <mxGeometry x="245" y="720" width="30" height="30" as="geometry" />
        </mxCell>
        <mxCell id="VfnCZ4Grp9ZNNskB4M9N-118" value="&lt;b&gt;&lt;font style=&quot;font-size: 14px;&quot;&gt;1&lt;/font&gt;&lt;/b&gt;" style="text;html=1;align=center;verticalAlign=middle;resizable=0;points=[];autosize=1;strokeColor=none;fillColor=none;" vertex="1" parent="1">
          <mxGeometry x="420" y="400" width="30" height="30" as="geometry" />
        </mxCell>
        <mxCell id="VfnCZ4Grp9ZNNskB4M9N-119" value="&lt;b&gt;&lt;font style=&quot;font-size: 14px;&quot;&gt;1&lt;/font&gt;&lt;/b&gt;" style="text;html=1;align=center;verticalAlign=middle;resizable=0;points=[];autosize=1;strokeColor=none;fillColor=none;" vertex="1" parent="1">
          <mxGeometry x="570" y="705" width="30" height="30" as="geometry" />
        </mxCell>
        <mxCell id="VfnCZ4Grp9ZNNskB4M9N-120" value="&lt;b&gt;&lt;font style=&quot;font-size: 14px;&quot;&gt;1&lt;/font&gt;&lt;/b&gt;" style="text;html=1;align=center;verticalAlign=middle;resizable=0;points=[];autosize=1;strokeColor=none;fillColor=none;" vertex="1" parent="1">
          <mxGeometry x="910" y="130" width="30" height="30" as="geometry" />
        </mxCell>
        <mxCell id="VfnCZ4Grp9ZNNskB4M9N-121" value="&lt;font style=&quot;font-size: 14px;&quot;&gt;&lt;b&gt;M&lt;/b&gt;&lt;/font&gt;" style="text;html=1;align=center;verticalAlign=middle;resizable=0;points=[];autosize=1;strokeColor=none;fillColor=none;" vertex="1" parent="1">
          <mxGeometry x="200" y="750" width="40" height="30" as="geometry" />
        </mxCell>
        <mxCell id="VfnCZ4Grp9ZNNskB4M9N-123" value="&lt;font style=&quot;font-size: 14px;&quot;&gt;Name&lt;/font&gt;" style="ellipse;shape=doubleEllipse;margin=3;whiteSpace=wrap;html=1;align=center;" vertex="1" parent="1">
          <mxGeometry x="-160" y="170" width="110" height="60" as="geometry" />
        </mxCell>
        <mxCell id="VfnCZ4Grp9ZNNskB4M9N-125" value="&lt;font style=&quot;font-size: 14px;&quot;&gt;&lt;b&gt;M&lt;/b&gt;&lt;/font&gt;" style="text;html=1;align=center;verticalAlign=middle;resizable=0;points=[];autosize=1;strokeColor=none;fillColor=none;" vertex="1" parent="1">
          <mxGeometry x="490" y="20" width="40" height="30" as="geometry" />
        </mxCell>
      </root>
    </mxGraphModel>
  </diagram>
</mxfile>
